<?xml version="1.0" standalone="no"?><svg xmlns="http://www.w3.org/2000/svg" viewBox="0 0 1440 320"><path fill="rgba(43, 24, 14, 1)" fill-opacity="1" d="M0,288L21.8,256C43.6,224,87,160,131,154.7C174.5,149,218,203,262,202.7C305.5,203,349,149,393,149.3C436.4,149,480,203,524,202.7C567.3,203,611,149,655,149.3C698.2,149,742,203,785,208C829.1,213,873,171,916,165.3C960,160,1004,192,1047,186.7C1090.9,181,1135,139,1178,112C1221.8,85,1265,75,1309,90.7C1352.7,107,1396,149,1418,170.7L1440,192L1440,320L1418.2,320C1396.4,320,1353,320,1309,320C1265.5,320,1222,320,1178,320C1134.5,320,1091,320,1047,320C1003.6,320,960,320,916,320C872.7,320,829,320,785,320C741.8,320,698,320,655,320C610.9,320,567,320,524,320C480,320,436,320,393,320C349.1,320,305,320,262,320C218.2,320,175,320,131,320C87.3,320,44,320,22,320L0,320Z"></path></svg>