<svg id="visual" viewBox="0 0 1920 1080" width="1920" height="1080" xmlns="http://www.w3.org/2000/svg" xmlns:xlink="http://www.w3.org/1999/xlink" version="1.1"><path d="M0 87L26.7 78C53.3 69 106.7 51 160 49.3C213.3 47.7 266.7 62.3 320 69.7C373.3 77 426.7 77 480 69.7C533.3 62.3 586.7 47.7 640 51.2C693.3 54.7 746.7 76.3 800 80C853.3 83.7 906.7 69.3 960 65.8C1013.3 62.3 1066.7 69.7 1120 75C1173.3 80.3 1226.7 83.7 1280 89C1333.3 94.3 1386.7 101.7 1440 100C1493.3 98.3 1546.7 87.7 1600 75C1653.3 62.3 1706.7 47.7 1760 47.7C1813.3 47.7 1866.7 62.3 1893.3 69.7L1920 77L1920 0L1893.3 0C1866.7 0 1813.3 0 1760 0C1706.7 0 1653.3 0 1600 0C1546.7 0 1493.3 0 1440 0C1386.7 0 1333.3 0 1280 0C1226.7 0 1173.3 0 1120 0C1066.7 0 1013.3 0 960 0C906.7 0 853.3 0 800 0C746.7 0 693.3 0 640 0C586.7 0 533.3 0 480 0C426.7 0 373.3 0 320 0C266.7 0 213.3 0 160 0C106.7 0 53.3 0 26.7 0L0 0Z" fill="#b79c8b"></path><path d="M0 141L26.7 133.8C53.3 126.7 106.7 112.3 160 107C213.3 101.7 266.7 105.3 320 112.5C373.3 119.7 426.7 130.3 480 125C533.3 119.7 586.7 98.3 640 102C693.3 105.7 746.7 134.3 800 143.3C853.3 152.3 906.7 141.7 960 134.5C1013.3 127.3 1066.7 123.7 1120 121.8C1173.3 120 1226.7 120 1280 121.8C1333.3 123.7 1386.7 127.3 1440 130.8C1493.3 134.3 1546.7 137.7 1600 128.7C1653.3 119.7 1706.7 98.3 1760 96.7C1813.3 95 1866.7 113 1893.3 122L1920 131L1920 75L1893.3 67.7C1866.7 60.3 1813.3 45.7 1760 45.7C1706.7 45.7 1653.3 60.3 1600 73C1546.7 85.7 1493.3 96.3 1440 98C1386.7 99.7 1333.3 92.3 1280 87C1226.7 81.7 1173.3 78.3 1120 73C1066.7 67.7 1013.3 60.3 960 63.8C906.7 67.3 853.3 81.7 800 78C746.7 74.3 693.3 52.7 640 49.2C586.7 45.7 533.3 60.3 480 67.7C426.7 75 373.3 75 320 67.7C266.7 60.3 213.3 45.7 160 47.3C106.7 49 53.3 67 26.7 76L0 85Z" fill="#a88d7e"></path><path d="M0 195L26.7 187.8C53.3 180.7 106.7 166.3 160 166.3C213.3 166.3 266.7 180.7 320 186.2C373.3 191.7 426.7 188.3 480 179.3C533.3 170.3 586.7 155.7 640 157.3C693.3 159 746.7 177 800 186C853.3 195 906.7 195 960 195C1013.3 195 1066.7 195 1120 193.3C1173.3 191.7 1226.7 188.3 1280 183C1333.3 177.7 1386.7 170.3 1440 175.7C1493.3 181 1546.7 199 1600 191.8C1653.3 184.7 1706.7 152.3 1760 143.3C1813.3 134.3 1866.7 148.7 1893.3 155.8L1920 163L1920 129L1893.3 120C1866.7 111 1813.3 93 1760 94.7C1706.7 96.3 1653.3 117.7 1600 126.7C1546.7 135.7 1493.3 132.3 1440 128.8C1386.7 125.3 1333.3 121.7 1280 119.8C1226.7 118 1173.3 118 1120 119.8C1066.7 121.7 1013.3 125.3 960 132.5C906.7 139.7 853.3 150.3 800 141.3C746.7 132.3 693.3 103.7 640 100C586.7 96.3 533.3 117.7 480 123C426.7 128.3 373.3 117.7 320 110.5C266.7 103.3 213.3 99.7 160 105C106.7 110.3 53.3 124.7 26.7 131.8L0 139Z" fill="#997e71"></path><path d="M0 347L26.7 338C53.3 329 106.7 311 160 300.2C213.3 289.3 266.7 285.7 320 294.7C373.3 303.7 426.7 325.3 480 314.5C533.3 303.7 586.7 260.3 640 271C693.3 281.7 746.7 346.3 800 360.7C853.3 375 906.7 339 960 322.8C1013.3 306.7 1066.7 310.3 1120 310.3C1173.3 310.3 1226.7 306.7 1280 301.3C1333.3 296 1386.7 289 1440 298C1493.3 307 1546.7 332 1600 330.2C1653.3 328.3 1706.7 299.7 1760 276.3C1813.3 253 1866.7 235 1893.3 226L1920 217L1920 161L1893.3 153.8C1866.7 146.7 1813.3 132.3 1760 141.3C1706.7 150.3 1653.3 182.7 1600 189.8C1546.7 197 1493.3 179 1440 173.7C1386.7 168.3 1333.3 175.7 1280 181C1226.7 186.3 1173.3 189.7 1120 191.3C1066.7 193 1013.3 193 960 193C906.7 193 853.3 193 800 184C746.7 175 693.3 157 640 155.3C586.7 153.7 533.3 168.3 480 177.3C426.7 186.3 373.3 189.7 320 184.2C266.7 178.7 213.3 164.3 160 164.3C106.7 164.3 53.3 178.7 26.7 185.8L0 193Z" fill="#8a7064"></path><path d="M0 390L26.7 381C53.3 372 106.7 354 160 346.8C213.3 339.7 266.7 343.3 320 350.5C373.3 357.7 426.7 368.3 480 355.7C533.3 343 586.7 307 640 316C693.3 325 746.7 379 800 388C853.3 397 906.7 361 960 346.7C1013.3 332.3 1066.7 339.7 1120 341.5C1173.3 343.3 1226.7 339.7 1280 337.8C1333.3 336 1386.7 336 1440 346.8C1493.3 357.7 1546.7 379.3 1600 377.5C1653.3 375.7 1706.7 350.3 1760 326.8C1813.3 303.3 1866.7 281.7 1893.3 270.8L1920 260L1920 215L1893.3 224C1866.7 233 1813.3 251 1760 274.3C1706.7 297.7 1653.3 326.3 1600 328.2C1546.7 330 1493.3 305 1440 296C1386.7 287 1333.3 294 1280 299.3C1226.7 304.7 1173.3 308.3 1120 308.3C1066.7 308.3 1013.3 304.7 960 320.8C906.7 337 853.3 373 800 358.7C746.7 344.3 693.3 279.7 640 269C586.7 258.3 533.3 301.7 480 312.5C426.7 323.3 373.3 301.7 320 292.7C266.7 283.7 213.3 287.3 160 298.2C106.7 309 53.3 327 26.7 336L0 345Z" fill="#7c6157"></path><path d="M0 455L26.7 442.3C53.3 429.7 106.7 404.3 160 402.5C213.3 400.7 266.7 422.3 320 440.3C373.3 458.3 426.7 472.7 480 461.8C533.3 451 586.7 415 640 415C693.3 415 746.7 451 800 454.7C853.3 458.3 906.7 429.7 960 424.3C1013.3 419 1066.7 437 1120 444.2C1173.3 451.3 1226.7 447.7 1280 440.3C1333.3 433 1386.7 422 1440 423.8C1493.3 425.7 1546.7 440.3 1600 433.2C1653.3 426 1706.7 397 1760 384.3C1813.3 371.7 1866.7 375.3 1893.3 377.2L1920 379L1920 258L1893.3 268.8C1866.7 279.7 1813.3 301.3 1760 324.8C1706.7 348.3 1653.3 373.7 1600 375.5C1546.7 377.3 1493.3 355.7 1440 344.8C1386.7 334 1333.3 334 1280 335.8C1226.7 337.7 1173.3 341.3 1120 339.5C1066.7 337.7 1013.3 330.3 960 344.7C906.7 359 853.3 395 800 386C746.7 377 693.3 323 640 314C586.7 305 533.3 341 480 353.7C426.7 366.3 373.3 355.7 320 348.5C266.7 341.3 213.3 337.7 160 344.8C106.7 352 53.3 370 26.7 379L0 388Z" fill="#6d544b"></path><path d="M0 519L26.7 502.8C53.3 486.7 106.7 454.3 160 449C213.3 443.7 266.7 465.3 320 490.5C373.3 515.7 426.7 544.3 480 540.7C533.3 537 586.7 501 640 492C693.3 483 746.7 501 800 501C853.3 501 906.7 483 960 486.7C1013.3 490.3 1066.7 515.7 1120 523C1173.3 530.3 1226.7 519.7 1280 508.8C1333.3 498 1386.7 487 1440 481.5C1493.3 476 1546.7 476 1600 468.8C1653.3 461.7 1706.7 447.3 1760 443.8C1813.3 440.3 1866.7 447.7 1893.3 451.3L1920 455L1920 377L1893.3 375.2C1866.7 373.3 1813.3 369.7 1760 382.3C1706.7 395 1653.3 424 1600 431.2C1546.7 438.3 1493.3 423.7 1440 421.8C1386.7 420 1333.3 431 1280 438.3C1226.7 445.7 1173.3 449.3 1120 442.2C1066.7 435 1013.3 417 960 422.3C906.7 427.7 853.3 456.3 800 452.7C746.7 449 693.3 413 640 413C586.7 413 533.3 449 480 459.8C426.7 470.7 373.3 456.3 320 438.3C266.7 420.3 213.3 398.7 160 400.5C106.7 402.3 53.3 427.7 26.7 440.3L0 453Z" fill="#5f463f"></path><path d="M0 617L26.7 609.7C53.3 602.3 106.7 587.7 160 573.2C213.3 558.7 266.7 544.3 320 558.8C373.3 573.3 426.7 616.7 480 616.7C533.3 616.7 586.7 573.3 640 560.7C693.3 548 746.7 566 800 566C853.3 566 906.7 548 960 548C1013.3 548 1066.7 566 1120 573.2C1173.3 580.3 1226.7 576.7 1280 578.5C1333.3 580.3 1386.7 587.7 1440 595C1493.3 602.3 1546.7 609.7 1600 609.7C1653.3 609.7 1706.7 602.3 1760 596.8C1813.3 591.3 1866.7 587.7 1893.3 585.8L1920 584L1920 453L1893.3 449.3C1866.7 445.7 1813.3 438.3 1760 441.8C1706.7 445.3 1653.3 459.7 1600 466.8C1546.7 474 1493.3 474 1440 479.5C1386.7 485 1333.3 496 1280 506.8C1226.7 517.7 1173.3 528.3 1120 521C1066.7 513.7 1013.3 488.3 960 484.7C906.7 481 853.3 499 800 499C746.7 499 693.3 481 640 490C586.7 499 533.3 535 480 538.7C426.7 542.3 373.3 513.7 320 488.5C266.7 463.3 213.3 441.7 160 447C106.7 452.3 53.3 484.7 26.7 500.8L0 517Z" fill="#513a33"></path><path d="M0 671L26.7 663.7C53.3 656.3 106.7 641.7 160 621.8C213.3 602 266.7 577 320 589.7C373.3 602.3 426.7 652.7 480 654.5C533.3 656.3 586.7 609.7 640 593.5C693.3 577.3 746.7 591.7 800 595.2C853.3 598.7 906.7 591.3 960 591.3C1013.3 591.3 1066.7 598.7 1120 604.2C1173.3 609.7 1226.7 613.3 1280 620.5C1333.3 627.7 1386.7 638.3 1440 647.3C1493.3 656.3 1546.7 663.7 1600 660C1653.3 656.3 1706.7 641.7 1760 632.7C1813.3 623.7 1866.7 620.3 1893.3 618.7L1920 617L1920 582L1893.3 583.8C1866.7 585.7 1813.3 589.3 1760 594.8C1706.7 600.3 1653.3 607.7 1600 607.7C1546.7 607.7 1493.3 600.3 1440 593C1386.7 585.7 1333.3 578.3 1280 576.5C1226.7 574.7 1173.3 578.3 1120 571.2C1066.7 564 1013.3 546 960 546C906.7 546 853.3 564 800 564C746.7 564 693.3 546 640 558.7C586.7 571.3 533.3 614.7 480 614.7C426.7 614.7 373.3 571.3 320 556.8C266.7 542.3 213.3 556.7 160 571.2C106.7 585.7 53.3 600.3 26.7 607.7L0 615Z" fill="#442d28"></path><path d="M0 865L26.7 874C53.3 883 106.7 901 160 913.7C213.3 926.3 266.7 933.7 320 917.5C373.3 901.3 426.7 861.7 480 838.2C533.3 814.7 586.7 807.3 640 812.7C693.3 818 746.7 836 800 854C853.3 872 906.7 890 960 888.2C1013.3 886.3 1066.7 864.7 1120 846.7C1173.3 828.7 1226.7 814.3 1280 823.3C1333.3 832.3 1386.7 864.7 1440 880.8C1493.3 897 1546.7 897 1600 882.7C1653.3 868.3 1706.7 839.7 1760 820C1813.3 800.3 1866.7 789.7 1893.3 784.3L1920 779L1920 615L1893.3 616.7C1866.7 618.3 1813.3 621.7 1760 630.7C1706.7 639.7 1653.3 654.3 1600 658C1546.7 661.7 1493.3 654.3 1440 645.3C1386.7 636.3 1333.3 625.7 1280 618.5C1226.7 611.3 1173.3 607.7 1120 602.2C1066.7 596.7 1013.3 589.3 960 589.3C906.7 589.3 853.3 596.7 800 593.2C746.7 589.7 693.3 575.3 640 591.5C586.7 607.7 533.3 654.3 480 652.5C426.7 650.7 373.3 600.3 320 587.7C266.7 575 213.3 600 160 619.8C106.7 639.7 53.3 654.3 26.7 661.7L0 669Z" fill="#37211d"></path><path d="M0 1027L26.7 1028.8C53.3 1030.7 106.7 1034.3 160 1039.7C213.3 1045 266.7 1052 320 1053.8C373.3 1055.7 426.7 1052.3 480 1048.8C533.3 1045.3 586.7 1041.7 640 1036.2C693.3 1030.7 746.7 1023.3 800 1021.5C853.3 1019.7 906.7 1023.3 960 1028.8C1013.3 1034.3 1066.7 1041.7 1120 1043.5C1173.3 1045.3 1226.7 1041.7 1280 1038C1333.3 1034.3 1386.7 1030.7 1440 1027C1493.3 1023.3 1546.7 1019.7 1600 1017.8C1653.3 1016 1706.7 1016 1760 1019.7C1813.3 1023.3 1866.7 1030.7 1893.3 1034.3L1920 1038L1920 777L1893.3 782.3C1866.7 787.7 1813.3 798.3 1760 818C1706.7 837.7 1653.3 866.3 1600 880.7C1546.7 895 1493.3 895 1440 878.8C1386.7 862.7 1333.3 830.3 1280 821.3C1226.7 812.3 1173.3 826.7 1120 844.7C1066.7 862.7 1013.3 884.3 960 886.2C906.7 888 853.3 870 800 852C746.7 834 693.3 816 640 810.7C586.7 805.3 533.3 812.7 480 836.2C426.7 859.7 373.3 899.3 320 915.5C266.7 931.7 213.3 924.3 160 911.7C106.7 899 53.3 881 26.7 872L0 863Z" fill="#2a1613"></path><path d="M0 1081L26.7 1081C53.3 1081 106.7 1081 160 1081C213.3 1081 266.7 1081 320 1081C373.3 1081 426.7 1081 480 1081C533.3 1081 586.7 1081 640 1081C693.3 1081 746.7 1081 800 1081C853.3 1081 906.7 1081 960 1081C1013.3 1081 1066.7 1081 1120 1081C1173.3 1081 1226.7 1081 1280 1081C1333.3 1081 1386.7 1081 1440 1081C1493.3 1081 1546.7 1081 1600 1081C1653.3 1081 1706.7 1081 1760 1081C1813.3 1081 1866.7 1081 1893.3 1081L1920 1081L1920 1036L1893.3 1032.3C1866.7 1028.7 1813.3 1021.3 1760 1017.7C1706.7 1014 1653.3 1014 1600 1015.8C1546.7 1017.7 1493.3 1021.3 1440 1025C1386.7 1028.7 1333.3 1032.3 1280 1036C1226.7 1039.7 1173.3 1043.3 1120 1041.5C1066.7 1039.7 1013.3 1032.3 960 1026.8C906.7 1021.3 853.3 1017.7 800 1019.5C746.7 1021.3 693.3 1028.7 640 1034.2C586.7 1039.7 533.3 1043.3 480 1046.8C426.7 1050.3 373.3 1053.7 320 1051.8C266.7 1050 213.3 1043 160 1037.7C106.7 1032.3 53.3 1028.7 26.7 1026.8L0 1025Z" fill="#200702"></path></svg>